<svg xmlns="http://www.w3.org/2000/svg" viewBox="0 0 1024 1024">
  <defs>
    <linearGradient id="bg" x1="0" y1="0" x2="1" y2="1">
      <stop offset="0" stop-color="#12183a"/>
      <stop offset=".54" stop-color="#1d2d61"/>
      <stop offset="1" stop-color="#0b1024"/>
    </linearGradient>
    <radialGradient id="aura" cx="50%" cy="36%" r="60%">
      <stop offset="0" stop-color="#8cead8" stop-opacity=".38"/>
      <stop offset=".58" stop-color="#8cead8" stop-opacity=".08"/>
      <stop offset="1" stop-color="#8cead8" stop-opacity="0"/>
    </radialGradient>
    <linearGradient id="shell" x1="0" y1="0" x2="0" y2="1">
      <stop offset="0" stop-color="#6aa8ff"/>
      <stop offset=".56" stop-color="#4682ff"/>
      <stop offset="1" stop-color="#2c5fd8"/>
    </linearGradient>
    <linearGradient id="shellSide" x1="0" y1="0" x2="1" y2="1">
      <stop offset="0" stop-color="#87c0ff"/>
      <stop offset="1" stop-color="#5a8eff"/>
    </linearGradient>
    <linearGradient id="cream" x1="0" y1="0" x2="0" y2="1">
      <stop offset="0" stop-color="#fffaf0"/>
      <stop offset="1" stop-color="#efe7db"/>
    </linearGradient>
    <filter id="shadow" x="-20%" y="-20%" width="140%" height="140%">
      <feDropShadow dx="0" dy="28" stdDeviation="30" flood-color="#050916" flood-opacity=".42"/>
    </filter>
  </defs>

  <rect width="1024" height="1024" fill="url(#bg)"/>
  <rect width="1024" height="1024" fill="url(#aura)"/>

  <g opacity=".09" stroke="#dce7ff" stroke-width="7">
    <path d="M178 198h668"/>
    <path d="M178 334h668"/>
    <path d="M178 470h668"/>
    <path d="M178 606h668"/>
    <path d="M178 742h668"/>
    <path d="M214 150v724"/>
    <path d="M350 150v724"/>
    <path d="M486 150v724"/>
    <path d="M622 150v724"/>
    <path d="M758 150v724"/>
  </g>

  <g filter="url(#shadow)">
    <ellipse cx="512" cy="552" rx="364" ry="404" fill="#10204a" opacity=".44"/>
    <ellipse cx="512" cy="540" rx="324" ry="378" fill="url(#shell)"/>
    <path d="M512 162c-166 0-300 170-300 378 0 38 5 75 16 112 10-145 80-272 186-336 51-30 82-73 98-154z" fill="url(#shellSide)" opacity=".94"/>
    <ellipse cx="512" cy="584" rx="190" ry="194" fill="url(#cream)"/>
    <circle cx="512" cy="206" r="50" fill="#7bb7ff"/>
    <rect x="499" y="246" width="26" height="86" rx="13" fill="#203151"/>
    <circle cx="414" cy="528" r="22" fill="#29334d"/>
    <circle cx="610" cy="528" r="22" fill="#29334d"/>
    <path d="M412 676c56 46 144 46 200 0" fill="none" stroke="#29334d" stroke-linecap="round" stroke-width="22"/>
    <circle cx="362" cy="610" r="18" fill="#ff9bb7"/>
    <circle cx="662" cy="610" r="18" fill="#ff9bb7"/>
    <ellipse cx="400" cy="370" rx="48" ry="74" fill="#8bc0ff" transform="rotate(-30 400 370)"/>
    <ellipse cx="624" cy="370" rx="48" ry="74" fill="#8bc0ff" transform="rotate(30 624 370)"/>
    <ellipse cx="410" cy="380" rx="22" ry="34" fill="#aacfff" transform="rotate(-30 410 380)"/>
    <ellipse cx="614" cy="380" rx="22" ry="34" fill="#aacfff" transform="rotate(30 614 380)"/>
  </g>
</svg>
