<svg xmlns="http://www.w3.org/2000/svg" viewBox="0 0 1024 1024">
  <defs>
    <linearGradient id="bg" x1="0" y1="0" x2="1" y2="1">
      <stop offset="0" stop-color="#12183a"/>
      <stop offset=".54" stop-color="#1d2d61"/>
      <stop offset="1" stop-color="#0b1024"/>
    </linearGradient>
    <radialGradient id="aura" cx="50%" cy="36%" r="60%">
      <stop offset="0" stop-color="#8cead8" stop-opacity=".38"/>
      <stop offset=".58" stop-color="#8cead8" stop-opacity=".08"/>
      <stop offset="1" stop-color="#8cead8" stop-opacity="0"/>
    </radialGradient>
    <linearGradient id="shell" x1="0" y1="0" x2="0" y2="1">
      <stop offset="0" stop-color="#6aa8ff"/>
      <stop offset=".56" stop-color="#4682ff"/>
      <stop offset="1" stop-color="#2c5fd8"/>
    </linearGradient>
    <linearGradient id="shellSide" x1="0" y1="0" x2="1" y2="1">
      <stop offset="0" stop-color="#87c0ff"/>
      <stop offset="1" stop-color="#5a8eff"/>
    </linearGradient>
    <linearGradient id="cream" x1="0" y1="0" x2="0" y2="1">
      <stop offset="0" stop-color="#fffaf0"/>
      <stop offset="1" stop-color="#efe7db"/>
    </linearGradient>
    <filter id="shadow" x="-20%" y="-20%" width="140%" height="140%">
      <feDropShadow dx="0" dy="28" stdDeviation="30" flood-color="#050916" flood-opacity=".42"/>
    </filter>
  </defs>

  <rect width="1024" height="1024" rx="246" fill="url(#bg)"/>
  <rect width="1024" height="1024" rx="246" fill="url(#aura)"/>

  <g opacity=".09" stroke="#dce7ff" stroke-width="7">
    <path d="M198 222h628"/>
    <path d="M198 350h628"/>
    <path d="M198 478h628"/>
    <path d="M198 606h628"/>
    <path d="M198 734h628"/>
    <path d="M230 174v680"/>
    <path d="M358 174v680"/>
    <path d="M486 174v680"/>
    <path d="M614 174v680"/>
    <path d="M742 174v680"/>
  </g>

  <g filter="url(#shadow)">
    <ellipse cx="512" cy="548" rx="290" ry="342" fill="#10204a" opacity=".62"/>
    <ellipse cx="512" cy="538" rx="256" ry="312" fill="url(#shell)"/>
    <path d="M512 226c-130 0-236 140-236 312 0 33 4 65 12 94 8-118 64-221 146-273 41-26 66-61 78-133z" fill="url(#shellSide)" opacity=".92"/>
    <ellipse cx="512" cy="566" rx="148" ry="158" fill="url(#cream)"/>
    <circle cx="512" cy="260" r="40" fill="#7bb7ff"/>
    <rect x="502" y="290" width="20" height="64" rx="10" fill="#203151"/>
    <circle cx="434" cy="520" r="18" fill="#29334d"/>
    <circle cx="590" cy="520" r="18" fill="#29334d"/>
    <path d="M434 652c44 38 112 38 156 0" fill="none" stroke="#29334d" stroke-linecap="round" stroke-width="16"/>
    <circle cx="390" cy="596" r="14" fill="#ff9bb7"/>
    <circle cx="634" cy="596" r="14" fill="#ff9bb7"/>
    <ellipse cx="424" cy="396" rx="36" ry="56" fill="#8bc0ff" transform="rotate(-28 424 396)"/>
    <ellipse cx="600" cy="396" rx="36" ry="56" fill="#8bc0ff" transform="rotate(28 600 396)"/>
    <ellipse cx="432" cy="402" rx="18" ry="26" fill="#aacfff" transform="rotate(-28 432 402)"/>
    <ellipse cx="592" cy="402" rx="18" ry="26" fill="#aacfff" transform="rotate(28 592 402)"/>
  </g>

  <g>
    <circle cx="214" cy="760" r="28" fill="#7fe2ba"/>
    <circle cx="282" cy="816" r="22" fill="#f4cb4f"/>
    <circle cx="810" cy="766" r="30" fill="#9563ff"/>
    <circle cx="742" cy="834" r="22" fill="#f2a55d"/>
  </g>
</svg>
